<svg xmlns="http://www.w3.org/2000/svg" viewBox="0 0 22.138 22.138" xmlns:xlink="http://www.w3.org/1999/xlink" width="500" zoomAndPan="magnify" viewBox="0 0 375 374.999991" height="500" preserveAspectRatio="xMidYMid meet" version="1.0"><path fill="#f8f9fc" d="M 131.695312 86.601562 C 149.363281 84.371094 166.355469 88.628906 180.285156 97.515625 C 180.402344 97.578125 180.515625 97.648438 180.617188 97.730469 C 182.425781 98.894531 184.179688 100.136719 185.871094 101.457031 C 200.675781 112.957031 211.105469 130.097656 213.671875 150.15625 C 213.695312 150.257812 213.707031 150.363281 213.710938 150.46875 C 216.195312 170.539062 210.339844 189.734375 198.855469 204.546875 C 195.851562 208.421875 192.460938 212 188.738281 215.210938 C 188.625 215.339844 188.5 215.449219 188.359375 215.539062 C 177.902344 224.441406 164.835938 230.507812 150.21875 232.382812 C 150.113281 232.40625 150.007812 232.414062 149.90625 232.421875 C 142.289062 233.367188 134.800781 233.105469 127.632812 231.789062 C 127.546875 231.777344 127.460938 231.765625 127.375 231.742188 C 115.769531 229.566406 105.003906 224.625 95.890625 217.546875 C 95.324219 217.105469 94.765625 216.65625 94.210938 216.203125 C 94.125 216.140625 94.042969 216.074219 93.964844 215.996094 C 80.1875 204.53125 70.546875 188.027344 68.09375 168.847656 C 68.070312 168.746094 68.058594 168.636719 68.054688 168.535156 C 66.167969 153.289062 69.09375 138.550781 75.640625 125.851562 C 75.679688 125.761719 75.722656 125.675781 75.773438 125.59375 C 77.816406 121.671875 80.207031 117.941406 82.910156 114.457031 C 94.425781 99.597656 111.597656 89.140625 131.695312 86.601562 Z M 188.851562 108.953125 L 188.996094 109.191406 C 191.667969 113.632812 194.027344 118.378906 195.773438 122.761719 C 195.847656 122.949219 195.886719 123.140625 195.902344 123.332031 C 199.335938 126.628906 202.613281 130.144531 205.6875 133.941406 C 201.917969 124.332031 196.109375 115.851562 188.851562 108.953125 Z M 191.683594 122.695312 C 190.085938 118.910156 188.046875 114.90625 185.773438 111.121094 C 183.421875 107.207031 180.828125 103.546875 178.226562 100.644531 C 176.152344 99.324219 174 98.109375 171.789062 97.011719 L 154.066406 93.160156 C 153.925781 93.398438 153.726562 93.605469 153.480469 93.765625 C 151.636719 94.957031 149.457031 96.726562 147.316406 98.667969 C 145.242188 100.546875 143.203125 102.589844 141.519531 104.4375 C 146.410156 110.28125 150.222656 116.195312 153.457031 122.148438 C 157.917969 123.246094 163.152344 124.839844 168.328125 126.609375 C 173.488281 128.375 178.589844 130.304688 182.8125 132.082031 C 185.855469 129.09375 188.824219 125.980469 191.683594 122.695312 Z M 206.746094 164.046875 C 206.839844 164.183594 206.914062 164.335938 206.96875 164.5 C 207.820312 167.046875 208.621094 169.984375 209.167969 173.277344 C 210.578125 166.246094 210.925781 158.878906 210.046875 151.378906 Z M 206.058594 184.109375 C 206.242188 180.453125 205.992188 177.085938 205.496094 174.042969 C 205.035156 171.199219 204.359375 168.621094 203.625 166.34375 L 191.398438 162.9375 C 188.867188 166.832031 185.589844 170.835938 182.074219 174.515625 C 178.265625 178.503906 174.171875 182.113281 170.4375 184.808594 C 171.011719 192.59375 170.816406 200.132812 169.160156 207.554688 C 171.335938 208.597656 173.898438 209.519531 176.652344 210.265625 C 179.859375 211.132812 183.308594 211.753906 186.691406 212.03125 C 190.074219 209.070312 193.15625 205.792969 195.898438 202.25 C 200.148438 196.769531 203.585938 190.65625 206.058594 184.109375 Z M 182.613281 215.339844 C 180.25 214.988281 177.90625 214.496094 175.675781 213.890625 C 172.003906 212.894531 168.613281 211.589844 165.902344 210.097656 C 159.257812 212.722656 152.089844 214.605469 144.390625 215.730469 L 144.355469 215.796875 C 142.746094 218.507812 140.457031 221.390625 137.738281 224.140625 C 136.160156 225.738281 134.4375 227.296875 132.617188 228.75 C 138.132812 229.410156 143.8125 229.410156 149.574219 228.679688 L 149.589844 228.679688 C 162.015625 227.109375 173.261719 222.355469 182.613281 215.339844 Z M 167.765625 182.109375 C 171.460938 179.503906 175.5625 175.910156 179.375 171.921875 C 182.949219 168.183594 186.261719 164.09375 188.730469 160.148438 C 187.421875 151.511719 185.296875 143.445312 182.34375 135.960938 C 177.984375 134.089844 172.570312 132.023438 167.121094 130.160156 C 162.234375 128.492188 157.3125 126.980469 153.089844 125.921875 C 147.882812 131.269531 143.003906 136.984375 138.421875 143.03125 L 147.296875 176.207031 C 154.320312 178.777344 161.019531 180.253906 167.765625 182.109375 Z M 137.734375 103.058594 C 137.761719 103.023438 137.789062 102.988281 137.820312 102.953125 C 139.71875 100.78125 142.234375 98.21875 144.804688 95.882812 C 146.738281 94.136719 148.699219 92.515625 150.472656 91.269531 L 149.578125 90.304688 C 143.921875 89.597656 138.089844 89.578125 132.175781 90.324219 C 119.589844 91.914062 108.214844 96.773438 98.796875 103.9375 L 98.519531 105.140625 C 100.921875 105.292969 103.722656 105.683594 106.488281 106.289062 C 109.53125 106.957031 112.566406 107.886719 115.03125 109.03125 C 115.085938 109.054688 115.132812 109.082031 115.183594 109.109375 C 122.511719 106.558594 130.042969 104.585938 137.734375 103.058594 Z M 79.152344 127.214844 C 78.300781 131.195312 77.660156 135.5625 77.507812 140.066406 C 77.359375 144.34375 77.65625 148.761719 78.625 153.097656 C 82.640625 154.476562 86.664062 155.65625 90.6875 156.699219 C 93.382812 152.710938 96.707031 148.519531 100.226562 144.589844 C 103.828125 140.558594 107.652344 136.785156 111.21875 133.769531 C 110.570312 125.886719 111.066406 118.667969 112.660156 112.085938 C 110.601562 111.21875 108.15625 110.5 105.691406 109.960938 C 102.53125 109.269531 99.375 108.871094 96.953125 108.828125 C 96.714844 108.824219 96.492188 108.777344 96.285156 108.691406 L 82.921875 120.84375 C 81.558594 122.894531 80.296875 125.019531 79.152344 127.214844 Z M 75.316406 155.230469 C 75.269531 155.125 75.230469 155.011719 75.199219 154.894531 C 74.054688 150.242188 73.652344 145.515625 73.738281 140.933594 C 71.355469 149.554688 70.601562 158.78125 71.789062 168.210938 L 71.789062 168.21875 C 71.855469 168.734375 71.925781 169.246094 72.003906 169.753906 C 72.796875 164.773438 73.925781 159.941406 75.316406 155.230469 Z M 86.097656 197.027344 C 86.042969 196.800781 86.035156 196.578125 86.0625 196.359375 L 76.894531 187.054688 C 79.828125 193.898438 83.8125 200.136719 88.617188 205.589844 C 87.511719 202.625 86.746094 199.773438 86.097656 197.027344 Z M 89.914062 196.886719 C 90.519531 199.371094 91.234375 201.9375 92.25 204.601562 C 93.324219 207.417969 94.734375 210.347656 96.703125 213.402344 C 97.191406 213.804688 97.6875 214.199219 98.183594 214.589844 C 106.664062 221.175781 116.65625 225.8125 127.429688 227.933594 C 130.199219 226.019531 132.804688 223.804688 135.074219 221.507812 C 137.386719 219.167969 139.351562 216.738281 140.792969 214.4375 C 136.269531 209.039062 131.9375 203.179688 128.304688 196.691406 C 123.890625 196.234375 118.789062 195.089844 113.71875 193.511719 C 108.554688 191.902344 103.402344 189.832031 99.035156 187.574219 Z M 143.691406 177.261719 L 134.789062 144.007812 C 127.957031 141.125 120.914062 138.679688 113.691406 136.589844 C 110.257812 139.488281 106.546875 143.152344 103.023438 147.09375 C 99.480469 151.054688 96.144531 155.28125 93.496094 159.265625 C 93.40625 159.398438 93.300781 159.519531 93.183594 159.621094 C 94.34375 167.570312 96.503906 175.609375 99.65625 183.734375 C 99.816406 183.769531 99.976562 183.828125 100.125 183.90625 C 104.433594 186.195312 109.621094 188.304688 114.828125 189.925781 C 119.621094 191.421875 124.417969 192.503906 128.546875 192.945312 C 133.9375 187.644531 139.125 183.015625 143.691406 177.261719 Z M 143.691406 177.261719 " fill-opacity="1" fill-rule="nonzero"/></svg>